<?xml version="1.0" encoding="UTF-8"?>
<svg width="1010px" height="198px" viewBox="0 0 1010 198" version="1.1" xmlns="http://www.w3.org/2000/svg" xmlns:xlink="http://www.w3.org/1999/xlink">
    <title>AZUKIwhite</title>
    <g id="Page-1" stroke="none" stroke-width="1" fill="none" fill-rule="evenodd">
        <path d="M91.958691,198 C93.863183,198 94.679394,196.91358 95.223535,195.283951 L112.636035,142.320988 L130.048535,195.283951 C130.592676,196.91358 131.408887,198 133.313379,198 L222.280372,198 C224.456935,198 225.545216,196.641975 224.729005,194.469136 L158.615918,1.62963 C158.343848,0.54321 157.255567,0 156.167286,0 L69.648925,0 C68.288574,0 67.472363,0.54321 66.928222,1.62963 L0.270994958,194.469136 C-0.545216042,196.641975 0.543064958,198 2.71962796,198 L91.958691,198 Z M431.48832,198 C432.84529,198 433.93087,196.91358 433.93087,195.555556 L433.93087,114.888889 C433.93087,113.530864 432.84529,112.444444 431.48832,112.444444 L386.165319,112.444444 C385.893924,112.444444 385.079739,112.444444 384.808344,111.901235 C384.536948,111.358025 384.808344,110.814815 385.079739,110.271605 L433.38808,5.160494 C435.01645,1.62963 433.11669,0 430.94553,0 L241.511684,0 C240.154708,0 239.069127,1.358025 239.069127,2.716049 L239.069127,83.382716 C239.069127,84.740741 240.154708,85.82716 241.511684,85.82716 L287.377471,85.82716 C287.648866,85.82716 288.463052,85.82716 288.734447,86.37037 C289.005842,86.91358 288.734447,87.45679 288.463052,88 L239.611918,193.111111 C237.983547,196.37037 239.883313,198 242.054474,198 L431.48832,198 Z M551,198 C606.26415,198 652,154.271605 652,99.679012 L652,2.716049 C652,1.08642 650.91105,0 649.27763,0 L560.5283,0 C559.16712,0 558.07817,1.08642 558.07817,2.716049 L558.07817,98.049383 C558.07817,102.123457 554.81132,105.111111 551,105.111111 C547.18868,105.111111 543.92183,102.123457 543.92183,98.049383 L543.92183,2.716049 C543.92183,1.08642 542.83288,0 541.4717,0 L452.72237,0 C451.08895,0 450,1.08642 450,2.716049 L450,99.679012 C450,154.271605 495.73585,198 551,198 Z M765.20601,198 C766.83318,198 767.91796,196.91358 767.91796,195.283951 L767.91796,130.37037 L775.51139,130.37037 L802.63081,195.283951 C803.44439,196.91358 803.98678,198 806.15633,198 L898.09115,198 C899.98951,198 900.5319,197.185185 899.44712,194.740741 L859.31039,99.407407 L899.44712,3.259259 C900.5319,0.814815 899.98951,0 898.09115,0 L806.42753,0 C804.25797,0 803.71559,1.08642 802.902,2.716049 L774.969,69.530864 L767.91796,69.530864 L767.91796,2.716049 C767.91796,1.358025 766.83318,0 765.20601,0 L675.71194,0 C674.08478,0 673,0.814815 673,2.716049 L673,195.283951 C673,196.91358 674.08478,198 675.71194,198 L765.20601,198 Z M1007.28571,198 C1008.64286,198 1010,196.913565 1010,195.283912 L1010,2.714552 C1010,1.356508 1008.64286,0 1007.28571,0 L917.71429,0 C916.35714,0 915,1.356508 915,2.714552 L915,195.283912 C915,196.913565 916.35714,198 917.71429,198 L1007.28571,198 Z" id="AZUKIwhite" fill="#FFFFFF" fill-rule="nonzero"></path>
    </g>
</svg>